<svg width="19" height="19" viewBox="0 0 19 19" fill="none" xmlns="http://www.w3.org/2000/svg">
    <path
        d="M4.19767 11.3044L2.83099 17.2224C2.78867 17.4016 2.80138 17.5894 2.86745 17.7613C2.93352 17.9331 3.04988 18.0811 3.20135 18.1858C3.35281 18.2905 3.53232 18.3471 3.71645 18.3482C3.90057 18.3493 4.08075 18.2948 4.23345 18.1919L9.22779 14.8624L14.2221 18.1919C14.3784 18.2957 14.5626 18.3491 14.7501 18.345C14.9376 18.3408 15.1193 18.2794 15.2709 18.1689C15.4224 18.0584 15.5365 17.9042 15.5978 17.727C15.659 17.5497 15.6645 17.358 15.6136 17.1775L13.9359 11.3072L18.0965 7.56302C18.2298 7.44304 18.3249 7.28663 18.3702 7.11313C18.4155 6.93964 18.409 6.75667 18.3514 6.58685C18.2938 6.41703 18.1877 6.26782 18.0463 6.15766C17.9048 6.0475 17.7341 5.98123 17.5554 5.96704L12.3262 5.55061L10.0634 0.541597C9.99123 0.380306 9.87394 0.243344 9.72567 0.147241C9.5774 0.0511377 9.40448 0 9.22779 0C9.05109 0 8.87817 0.0511377 8.7299 0.147241C8.58163 0.243344 8.46434 0.380306 8.39219 0.541597L6.12937 5.55061L0.900217 5.96612C0.724525 5.98004 0.556564 6.04428 0.416426 6.15115C0.276288 6.25803 0.169908 6.40302 0.110013 6.56877C0.050118 6.73452 0.0392436 6.91402 0.0786913 7.08579C0.118139 7.25756 0.206238 7.41433 0.332449 7.53734L4.19767 11.3044ZM6.81454 7.33647C6.97826 7.32357 7.1355 7.26686 7.26977 7.1723C7.40404 7.07773 7.51039 6.94878 7.57768 6.79897L9.22779 3.14746L10.8779 6.79897C10.9452 6.94878 11.0515 7.07773 11.1858 7.1723C11.3201 7.26686 11.4773 7.32357 11.641 7.33647L15.2843 7.6254L12.284 10.3257C12.0235 10.5605 11.9199 10.9219 12.0153 11.2595L13.1646 15.2815L9.73777 12.9967C9.58736 12.8958 9.41031 12.8419 9.22916 12.8419C9.04801 12.8419 8.87097 12.8958 8.72055 12.9967L5.13967 15.3843L6.10277 11.2145C6.13808 11.0612 6.13334 10.9013 6.08901 10.7503C6.04467 10.5993 5.96223 10.4623 5.84961 10.3523L3.06305 7.63548L6.81454 7.33647Z"
        fill="#F3CD03" />
</svg>